<svg width="28" height="28" viewBox="0 0 28 28" fill="none" xmlns="http://www.w3.org/2000/svg">
<path d="M17.254 11C17.8507 11 18.423 11.2371 18.845 11.659C19.2669 12.081 19.504 12.6533 19.504 13.25V19.499C19.504 20.958 18.9244 22.3572 17.8928 23.3888C16.8612 24.4204 15.462 25 14.003 25C12.544 25 11.1448 24.4204 10.1132 23.3888C9.08157 22.3572 8.502 20.958 8.502 19.499V13.25C8.502 12.6533 8.73905 12.081 9.16101 11.659C9.58297 11.2371 10.1553 11 10.752 11H17.254ZM17.254 12.5H10.752C10.5531 12.5 10.3623 12.579 10.2217 12.7197C10.081 12.8603 10.002 13.0511 10.002 13.25V19.499C10.002 20.5601 10.4235 21.5778 11.1739 22.3281C11.9242 23.0785 12.9419 23.5 14.003 23.5C15.0641 23.5 16.0818 23.0785 16.8321 22.3281C17.5825 21.5778 18.004 20.5601 18.004 19.499V13.25C18.004 13.0511 17.925 12.8603 17.7843 12.7197C17.6437 12.579 17.4529 12.5 17.254 12.5ZM4.25 11H8.406C8.0044 11.4179 7.72227 11.9359 7.589 12.5H4.25C4.05109 12.5 3.86032 12.579 3.71967 12.7197C3.57902 12.8603 3.5 13.0511 3.5 13.25V18.499C3.49961 19.0008 3.62512 19.4948 3.86503 19.9356C4.10495 20.3763 4.45162 20.7499 4.87328 21.022C5.29495 21.2941 5.77814 21.4561 6.27862 21.4932C6.7791 21.5302 7.28088 21.4411 7.738 21.234C7.871 21.724 8.062 22.19 8.302 22.626C7.61689 22.9254 6.86797 23.0494 6.12292 22.9867C5.37786 22.9241 4.66017 22.6768 4.03467 22.2672C3.40918 21.8575 2.89561 21.2985 2.54037 20.6406C2.18513 19.9827 1.99941 19.2467 2 18.499V13.25C2 12.6533 2.23705 12.081 2.65901 11.659C3.08097 11.2371 3.65326 11 4.25 11ZM23.75 11C24.3467 11 24.919 11.2371 25.341 11.659C25.7629 12.081 26 12.6533 26 13.25V18.5C26.0003 19.2472 25.8146 19.9826 25.4595 20.6401C25.1045 21.2975 24.5914 21.8562 23.9664 22.2657C23.3415 22.6752 22.6244 22.9227 21.8799 22.9857C21.1354 23.0488 20.3869 22.9255 19.702 22.627L19.758 22.525C19.972 22.119 20.145 21.688 20.269 21.236C20.7259 21.4416 21.227 21.5295 21.7266 21.4916C22.2262 21.4538 22.7083 21.2914 23.129 21.0194C23.5498 20.7473 23.8956 20.3742 24.1351 19.9341C24.3746 19.4941 24.5 19.001 24.5 18.5V13.25C24.5 13.0513 24.4211 12.8606 24.2807 12.72C24.1402 12.5794 23.9497 12.5003 23.751 12.5H20.418C20.2845 11.9358 20.002 11.4178 19.6 11H23.75ZM14 3C14.4596 3 14.9148 3.09053 15.3394 3.26642C15.764 3.44231 16.1499 3.70012 16.4749 4.02513C16.7999 4.35013 17.0577 4.73597 17.2336 5.16061C17.4095 5.58525 17.5 6.04037 17.5 6.5C17.5 6.95963 17.4095 7.41475 17.2336 7.83939C17.0577 8.26403 16.7999 8.64987 16.4749 8.97487C16.1499 9.29988 15.764 9.55769 15.3394 9.73358C14.9148 9.90947 14.4596 10 14 10C13.0717 10 12.1815 9.63125 11.5251 8.97487C10.8688 8.3185 10.5 7.42826 10.5 6.5C10.5 5.57174 10.8688 4.6815 11.5251 4.02513C12.1815 3.36875 13.0717 3 14 3ZM22.003 4C22.397 4 22.7871 4.0776 23.1511 4.22836C23.515 4.37913 23.8457 4.6001 24.1243 4.87868C24.4029 5.15726 24.6239 5.48797 24.7746 5.85195C24.9254 6.21593 25.003 6.60603 25.003 7C25.003 7.39397 24.9254 7.78407 24.7746 8.14805C24.6239 8.51203 24.4029 8.84274 24.1243 9.12132C23.8457 9.3999 23.515 9.62087 23.1511 9.77164C22.7871 9.9224 22.397 10 22.003 10C21.2074 10 20.4443 9.68393 19.8817 9.12132C19.3191 8.55871 19.003 7.79565 19.003 7C19.003 6.20435 19.3191 5.44129 19.8817 4.87868C20.4443 4.31607 21.2074 4 22.003 4ZM5.997 4C6.39097 4 6.78108 4.0776 7.14505 4.22836C7.50903 4.37913 7.83975 4.6001 8.11832 4.87868C8.3969 5.15726 8.61788 5.48797 8.76864 5.85195C8.9194 6.21593 8.997 6.60603 8.997 7C8.997 7.39397 8.9194 7.78407 8.76864 8.14805C8.61788 8.51203 8.3969 8.84274 8.11832 9.12132C7.83975 9.3999 7.50903 9.62087 7.14505 9.77164C6.78108 9.9224 6.39097 10 5.997 10C5.20135 10 4.43829 9.68393 3.87568 9.12132C3.31307 8.55871 2.997 7.79565 2.997 7C2.997 6.20435 3.31307 5.44129 3.87568 4.87868C4.43829 4.31607 5.20135 4 5.997 4ZM14 4.5C13.4696 4.5 12.9609 4.71071 12.5858 5.08579C12.2107 5.46086 12 5.96957 12 6.5C12 7.03043 12.2107 7.53914 12.5858 7.91421C12.9609 8.28929 13.4696 8.5 14 8.5C14.5304 8.5 15.0391 8.28929 15.4142 7.91421C15.7893 7.53914 16 7.03043 16 6.5C16 5.96957 15.7893 5.46086 15.4142 5.08579C15.0391 4.71071 14.5304 4.5 14 4.5ZM22.003 5.5C21.806 5.5 21.611 5.5388 21.429 5.61418C21.247 5.68956 21.0816 5.80005 20.9423 5.93934C20.8031 6.07863 20.6926 6.24399 20.6172 6.42597C20.5418 6.60796 20.503 6.80302 20.503 7C20.503 7.19698 20.5418 7.39204 20.6172 7.57403C20.6926 7.75601 20.8031 7.92137 20.9423 8.06066C21.0816 8.19995 21.247 8.31044 21.429 8.38582C21.611 8.4612 21.806 8.5 22.003 8.5C22.4008 8.5 22.7824 8.34196 23.0637 8.06066C23.345 7.77936 23.503 7.39782 23.503 7C23.503 6.60218 23.345 6.22064 23.0637 5.93934C22.7824 5.65804 22.4008 5.5 22.003 5.5ZM5.997 5.5C5.80002 5.5 5.60496 5.5388 5.42298 5.61418C5.24099 5.68956 5.07563 5.80005 4.93634 5.93934C4.79705 6.07863 4.68656 6.24399 4.61118 6.42597C4.5358 6.60796 4.497 6.80302 4.497 7C4.497 7.19698 4.5358 7.39204 4.61118 7.57403C4.68656 7.75601 4.79705 7.92137 4.93634 8.06066C5.07563 8.19995 5.24099 8.31044 5.42298 8.38582C5.60496 8.4612 5.80002 8.5 5.997 8.5C6.39483 8.5 6.77636 8.34196 7.05766 8.06066C7.33897 7.77936 7.497 7.39782 7.497 7C7.497 6.60218 7.33897 6.22064 7.05766 5.93934C6.77636 5.65804 6.39483 5.5 5.997 5.5Z" fill="#C9AA5E"/>
</svg>
