<svg width="20" height="22" viewBox="0 0 20 22" fill="none" xmlns="http://www.w3.org/2000/svg">
<path d="M18.75 9.933V7.03C18.75 5.39 18.75 4.57 18.346 4.035C17.942 3.5 17.028 3.241 15.201 2.721C14.099 2.4045 13.0202 2.01258 11.972 1.548C10.773 1.016 10.174 0.75 9.75 0.75C9.326 0.75 8.727 1.016 7.528 1.548C6.648 1.938 5.548 2.366 4.299 2.721C2.472 3.241 1.559 3.501 1.154 4.035C0.75 4.57 0.75 5.39 0.75 7.03V9.933C0.75 15.558 5.813 18.933 8.344 20.269C8.951 20.589 9.254 20.75 9.75 20.75C10.246 20.75 10.549 20.59 11.156 20.27C13.687 18.932 18.75 15.558 18.75 9.933Z" stroke="#C9AA5E" stroke-width="1.5" stroke-linecap="round"/>
</svg>
