<svg width="20" height="20" viewBox="0 0 20 20" fill="none" xmlns="http://www.w3.org/2000/svg">
<path d="M9.28581 9.90624C9.28581 10.1252 9.21055 10.3352 9.07659 10.49C8.94264 10.6448 8.76096 10.7318 8.57151 10.7318H4.28576C4.09631 10.7318 3.91463 10.6448 3.78068 10.49C3.64672 10.3352 3.57146 10.1252 3.57146 9.90624C3.57146 9.6873 3.64672 9.47732 3.78068 9.32251C3.91463 9.16769 4.09631 9.08072 4.28576 9.08072H8.57151C8.76096 9.08072 8.94264 9.16769 9.07659 9.32251C9.21055 9.47732 9.28581 9.6873 9.28581 9.90624ZM8.57151 5.77864H4.28576C4.09631 5.77864 3.91463 5.86561 3.78068 6.02043C3.64672 6.17524 3.57146 6.38522 3.57146 6.60416C3.57146 6.8231 3.64672 7.03307 3.78068 7.18789C3.91463 7.3427 4.09631 7.42968 4.28576 7.42968H8.57151C8.76096 7.42968 8.94264 7.3427 9.07659 7.18789C9.21055 7.03307 9.28581 6.8231 9.28581 6.60416C9.28581 6.38522 9.21055 6.17524 9.07659 6.02043C8.94264 5.86561 8.76096 5.77864 8.57151 5.77864ZM18.5716 12.5345V18.987C18.5727 19.1325 18.5406 19.2758 18.4783 19.4023C18.4161 19.5288 18.326 19.6341 18.2173 19.7075C18.1085 19.7808 17.9849 19.8196 17.8589 19.8199C17.733 19.8202 17.6092 19.7821 17.5002 19.7093L15.3573 18.2915L13.2144 19.7093C13.1054 19.7821 12.9816 19.8202 12.8557 19.8199C12.7297 19.8196 12.6061 19.7808 12.4973 19.7075C12.3886 19.6341 12.2985 19.5288 12.2363 19.4023C12.174 19.2758 12.1418 19.1325 12.143 18.987V16.5104H1.42859C1.0497 16.5104 0.686335 16.3364 0.418423 16.0268C0.150511 15.7172 0 15.2972 0 14.8594V1.65104C0 1.21316 0.150511 0.793208 0.418423 0.483578C0.686335 0.173948 1.0497 0 1.42859 0H17.143C17.5219 0 17.8853 0.173948 18.1532 0.483578C18.4211 0.793208 18.5716 1.21316 18.5716 1.65104V4.80143C19.0231 5.30116 19.3825 5.90136 19.628 6.56586C19.8734 7.23037 20 7.94542 20 8.66796C20 9.39049 19.8734 10.1056 19.628 10.7701C19.3825 11.4346 19.0231 12.0348 18.5716 12.5345ZM12.143 14.8594V12.5345C11.3646 11.6669 10.8727 10.5125 10.7521 9.2705C10.6315 8.0285 10.8898 6.7768 11.4825 5.73141C12.0751 4.68602 12.9649 3.91251 13.9983 3.54435C15.0318 3.1762 16.144 3.23649 17.143 3.71484V1.65104H1.42859V14.8594H12.143ZM17.143 13.6211C16.5773 13.8942 15.9704 14.0349 15.3573 14.0349C14.7442 14.0349 14.1372 13.8942 13.5716 13.6211V17.565L15.0001 16.6198C15.1081 16.5485 15.2303 16.511 15.3546 16.511C15.479 16.511 15.6011 16.5485 15.7091 16.6198L17.1377 17.565L17.143 13.6211ZM18.5716 8.66796C18.5716 7.93323 18.3831 7.21501 18.0299 6.6041C17.6767 5.9932 17.1747 5.51706 16.5874 5.23589C16 4.95473 15.3537 4.88116 14.7302 5.0245C14.1067 5.16784 13.534 5.52164 13.0844 6.04117C12.6349 6.5607 12.3288 7.22262 12.2047 7.94323C12.0807 8.66384 12.1444 9.41077 12.3877 10.0896C12.6309 10.7684 13.0429 11.3485 13.5715 11.7567C14.1001 12.1649 14.7216 12.3828 15.3573 12.3828C15.7794 12.3828 16.1974 12.2867 16.5874 12.1C16.9773 11.9133 17.3317 11.6397 17.6302 11.2947C17.9286 10.9498 18.1654 10.5403 18.3269 10.0896C18.4885 9.63886 18.5716 9.1558 18.5716 8.66796Z" fill="#C9AA5E"/>
</svg>
